<svg width="22" height="22" viewBox="0 0 22 22" fill="none" xmlns="http://www.w3.org/2000/svg">
<path d="M11 20.3334C16.1546 20.3334 20.3333 16.1547 20.3333 11.0001C20.3333 5.84542 16.1546 1.66675 11 1.66675C5.8453 1.66675 1.66663 5.84542 1.66663 11.0001C1.66663 16.1547 5.8453 20.3334 11 20.3334Z" stroke="black" stroke-width="2" stroke-linejoin="round"/>
<path d="M11.2273 6.66667C11.962 6.66667 12.6693 6.93467 13.2183 7.42133C13.2509 7.45122 13.2892 7.47431 13.3308 7.48927C13.3724 7.50424 13.4166 7.51077 13.4608 7.50848C13.5049 7.5062 13.5482 7.49514 13.5881 7.47597C13.6279 7.45679 13.6636 7.42988 13.6929 7.39679C13.7223 7.3637 13.7447 7.3251 13.759 7.28324C13.7733 7.24138 13.7791 7.1971 13.7761 7.15297C13.7731 7.10884 13.7614 7.06576 13.7415 7.02622C13.7217 6.98668 13.6942 6.95148 13.6607 6.92267C12.9897 6.3278 12.124 5.99953 11.2273 6C9.20567 6 7.56067 7.645 7.56067 9.66667V12.3333C7.56067 14.355 9.20567 16 11.2273 16C12.1253 16 12.9897 15.6723 13.6607 15.0773C13.6942 15.0485 13.7217 15.0133 13.7415 14.9738C13.7614 14.9342 13.7731 14.8912 13.7761 14.847C13.7791 14.8029 13.7733 14.7586 13.759 14.7168C13.7447 14.6749 13.7223 14.6363 13.6929 14.6032C13.6636 14.5701 13.6279 14.5432 13.5881 14.524C13.5482 14.5049 13.5049 14.4938 13.4608 14.4915C13.4166 14.4892 13.3724 14.4958 13.3308 14.5107C13.2892 14.5257 13.2509 14.5488 13.2183 14.5787C12.6693 15.0653 11.961 15.3338 11.2273 15.3333C9.573 15.3333 8.22734 13.9873 8.22734 12.3333V9.66667C8.22734 8.01267 9.57334 6.66667 11.2273 6.66667Z" stroke="black" stroke-width="2" stroke-linejoin="round"/>
</svg>
