<svg xmlns="http://www.w3.org/2000/svg" viewBox="0 0 792 612"><defs><style>.cls-1{font-size:57.87px;font-family:Raleway-Regular, Raleway;letter-spacing:0em;}.cls-1,.cls-7{fill:#ffffff;}.cls-2{letter-spacing:-0.07em;}.cls-3{letter-spacing:0em;}.cls-4{letter-spacing:-0.01em;}.cls-5{letter-spacing:-0.07em;}.cls-6{letter-spacing:-0.03em;}.cls-8{fill:#ffffff;}</style></defs><g id="Layer_3" data-name="Layer 3"><text class="cls-1" transform="translate(284.49 397.41)">S<tspan class="cls-2" x="35.07" y="0">T</tspan><tspan class="cls-3" x="66.43" y="0">A</tspan><tspan class="cls-4" x="105.55" y="0">R</tspan><tspan class="cls-5" x="142.94" y="0">T</tspan><tspan class="cls-6" x="174.3" y="0">A</tspan></text><path class="cls-7" d="M338.69,321v0a323.58,323.58,0,0,1,23-32.84c7.5-9.36,15.75-19.07,26-25.53,10.69-6.75,20.42-15.39,32.67-19.21-15.31,11.69-30.27,24-43.21,38.26s-23.85,30.65-30.09,48.88c18.5-16.5,48.73-13,67.75-28.92,8-6.7,13.18-16.22,16.95-26,9.08-23.45,11.12-48.94,13.06-74-.14,1.79-5.14,5.54-6.46,6.75a77.59,77.59,0,0,1-24.65,15.36c-5.7,2.21-11.69,3.35-17.39,5.39-4.55,1.62-9,3.36-13.52,5.16l-.43.17c-21.9,8.83-38.39,31-43.95,53.44C335.77,298.75,336.8,310.18,338.69,321Z"/><path class="cls-8" d="M306.63,406.23h1.26l6.29,15.13H312.6l-1.89-4.73h-6.92l-1.89,4.73h-1.6Zm3.61,9.23-3-7.48-3,7.48Z"/><path class="cls-8" d="M337.67,421.36V406.23h9.94v1.32h-8.45v5.56h7.12v1.24h-7.12v7Z"/><path class="cls-8" d="M371.55,421.36V406.23h6.39a3.92,3.92,0,0,1,1.79.4,4.6,4.6,0,0,1,1.42,1.1,5,5,0,0,1,.94,1.54,4.64,4.64,0,0,1,.33,1.71,5,5,0,0,1-.42,2,4.33,4.33,0,0,1-1.17,1.62,3.82,3.82,0,0,1-1.78.87l3.71,5.84h-1.68l-3.56-5.58H373v5.58Zm1.49-6.9H378a2.58,2.58,0,0,0,1.55-.49,3.26,3.26,0,0,0,1-1.29,4,4,0,0,0,.37-1.7,3.5,3.5,0,0,0-.42-1.69A3.57,3.57,0,0,0,379.4,408a2.63,2.63,0,0,0-1.54-.48H373Z"/><path class="cls-8" d="M406.79,421.36V406.23h1.49v15.13Z"/><path class="cls-8" d="M432.39,413.67a8,8,0,0,1,1.88-5.15,6.77,6.77,0,0,1,2.26-1.75,6.94,6.94,0,0,1,3.05-.65,6.23,6.23,0,0,1,3.46.93,5.63,5.63,0,0,1,2.12,2.38l-1.17.72a4.47,4.47,0,0,0-1.24-1.59,4.79,4.79,0,0,0-1.59-.84,5.75,5.75,0,0,0-1.67-.26,5.19,5.19,0,0,0-2.41.55,5.27,5.27,0,0,0-1.76,1.45,6.53,6.53,0,0,0-1.07,2,7.15,7.15,0,0,0-.37,2.27,7,7,0,0,0,.43,2.41,6.48,6.48,0,0,0,1.19,2,6,6,0,0,0,1.81,1.41,5,5,0,0,0,2.24.52,5.46,5.46,0,0,0,1.75-.3,5.33,5.33,0,0,0,1.68-.92,4.34,4.34,0,0,0,1.24-1.6l1.24.64a4.72,4.72,0,0,1-1.45,1.92,6.93,6.93,0,0,1-2.18,1.2,7.4,7.4,0,0,1-2.36.4,6.12,6.12,0,0,1-2.86-.67,7.64,7.64,0,0,1-2.25-1.79,8.35,8.35,0,0,1-1.46-2.52A8.16,8.16,0,0,1,432.39,413.67Z"/><path class="cls-8" d="M473.81,406.23h1.26l6.29,15.13h-1.58l-1.89-4.73H471l-1.89,4.73h-1.6Zm3.61,9.23-3-7.48-3,7.48Z"/></g></svg>