<svg xmlns="http://www.w3.org/2000/svg" viewBox="0 0 792 612"><defs><style>.cls-1,.cls-2{fill:#f56101;}.cls-2{font-size:118.73px;font-family:Raleway-Regular, Raleway;}.cls-3{letter-spacing:0em;}.cls-4{letter-spacing:-0.07em;}.cls-5{letter-spacing:-0.01em;}.cls-6{letter-spacing:-0.03em;}.cls-7{fill:#000049;}</style></defs><g id="Layer_3" data-name="Layer 3"><path class="cls-1" d="M88.76,386.11v0a471.4,471.4,0,0,1,33.62-47.95c10.94-13.66,23-27.84,37.94-37.27,15.61-9.86,29.82-22.46,47.7-28.05-22.35,17.07-44.19,35-63.08,55.86S110.12,373.48,101,400.09c27-24.09,71.15-19,98.92-42.21,11.7-9.79,19.23-23.7,24.74-37.92,13.26-34.24,16.23-71.45,19.07-108-.21,2.62-7.51,8.09-9.43,9.86a113.79,113.79,0,0,1-36,22.42c-8.32,3.22-17.06,4.9-25.39,7.87-6.63,2.37-13.2,4.91-19.74,7.53l-.62.24c-32,12.9-56,45.25-64.17,78C84.49,353.61,86,370.3,88.76,386.11Z"/><text class="cls-2" transform="translate(269.63 332.07)"><tspan class="cls-3">S</tspan><tspan class="cls-4" x="71.95" y="0">T</tspan><tspan x="136.31" y="0">A</tspan><tspan class="cls-5" x="216.57" y="0">R</tspan><tspan class="cls-4" x="293.27" y="0">T</tspan><tspan class="cls-6" x="357.63" y="0">A</tspan></text><path class="cls-7" d="M315,350.17h2.58l12.91,31.06h-3.24l-3.88-9.71h-14.2l-3.88,9.71h-3.28Zm7.41,18.94-6.14-15.35-6.14,15.35Z"/><path class="cls-7" d="M378.73,381.23V350.17h20.38v2.71H381.79V364.3H396.4v2.54H381.79v14.39Z"/><path class="cls-7" d="M448.24,381.23V350.17h13.12A8.14,8.14,0,0,1,465,351a9.52,9.52,0,0,1,2.91,2.26,10.42,10.42,0,0,1,1.92,3.15,9.38,9.38,0,0,1,.68,3.52,10.48,10.48,0,0,1-.85,4.2,9.15,9.15,0,0,1-2.41,3.32,7.88,7.88,0,0,1-3.65,1.79l7.61,12h-3.45l-7.31-11.46H451.3v11.46Zm3.06-14.17h10.15a5.23,5.23,0,0,0,3.19-1,6.67,6.67,0,0,0,2.1-2.65,8.38,8.38,0,0,0,.74-3.47,7.33,7.33,0,0,0-3.13-6.06,5.42,5.42,0,0,0-3.17-1H451.3Z"/><path class="cls-7" d="M520.54,381.23V350.17h3.06v31.06Z"/><path class="cls-7" d="M573.07,365.44a16.25,16.25,0,0,1,1-5.58,16.47,16.47,0,0,1,2.86-5,13.83,13.83,0,0,1,4.64-3.58,14.16,14.16,0,0,1,6.25-1.34,12.84,12.84,0,0,1,7.11,1.91,11.71,11.71,0,0,1,4.36,4.87l-2.41,1.49a9.19,9.19,0,0,0-2.54-3.26,10,10,0,0,0-3.26-1.73,11.71,11.71,0,0,0-3.43-.52,10.58,10.58,0,0,0-4.94,1.11,11,11,0,0,0-3.61,3,13.06,13.06,0,0,0-2.21,4.15,15,15,0,0,0-.74,4.66,14.15,14.15,0,0,0,.87,4.94,13.31,13.31,0,0,0,2.45,4.18,11.93,11.93,0,0,0,3.7,2.89,10,10,0,0,0,4.61,1.07,11.39,11.39,0,0,0,7-2.49,9.13,9.13,0,0,0,2.56-3.28l2.54,1.31a9.82,9.82,0,0,1-3,3.94,14.69,14.69,0,0,1-4.48,2.45,15.24,15.24,0,0,1-4.83.83,12.6,12.6,0,0,1-5.87-1.38,15.06,15.06,0,0,1-4.61-3.67,17,17,0,0,1-3-5.17A16.71,16.71,0,0,1,573.07,365.44Z"/><path class="cls-7" d="M658.06,350.17h2.58l12.91,31.06h-3.24l-3.88-9.71h-14.2l-3.88,9.71h-3.28Zm7.41,18.94-6.14-15.35-6.14,15.35Z"/></g></svg>